<svg xmlns="http://www.w3.org/2000/svg" viewBox="0 0 512 512">
    <defs>
        <linearGradient id="gearGrad" x1="0%" y1="0%" x2="100%" y2="100%">
            <stop offset="0%" style="stop-color:#e0c3fc;stop-opacity:1" />
            <stop offset="100%" style="stop-color:#8ec5fc;stop-opacity:1" />
        </linearGradient>
    </defs>
    <path d="M256 160 A96 96 0 1 0 256 352 A96 96 0 1 0 256 160 Z M460 216 L410 206 C402 184 390 164 374 146 L400 102 C406 92 402 80 392 74 L350 50 C340 44 328 46 322 56 L296 100 C274 90 250 86 226 88 L216 38 C214 26 204 18 192 18 L144 18 C132 18 122 26 120 38 L110 88 C86 92 64 102 46 118 L100 86 C90 102 108 124 118 142 L74 168 C68 178 70 190 80 196 L122 220 C132 226 144 224 150 214 L176 170 C198 180 222 184 246 182 L256 232 C258 244 268 252 280 252 L328 252 C340 252 350 244 352 232 L362 182 C386 178 408 168 426 152 L372 184 Z" fill="url(#gearGrad)" transform="translate(25 25) scale(0.9)"/>
    <circle cx="256" cy="256" r="60" fill="#fff" opacity="0.3"/>
</svg>
