<svg xmlns="http://www.w3.org/2000/svg" viewBox="0 0 512 512">
  <defs>
    <linearGradient id="grad" x1="0%" y1="0%" x2="100%" y2="100%">
      <stop offset="0%" style="stop-color:#00d4ff;stop-opacity:1" />
      <stop offset="100%" style="stop-color:#0066ff;stop-opacity:1" />
    </linearGradient>
  </defs>
  <path d="M256,0C114.615,0,0,114.615,0,256S114.615,512,256,512,512,397.385,512,256,397.385,0,256,0Zm0,472A216,216,0,1,1,472,256,216,216,0,0,1,256,472Z" fill="url(#grad)"/>
  <path d="M360,160H152a24,24,0,0,0-24,24V328a24,24,0,0,0,24,24H360a24,24,0,0,0,24-24V184A24,24,0,0,0,360,160Zm-8,168H160V184H352Z" fill="#ffffff"/>
  <rect x="236" y="236" width="40" height="60" rx="10" fill="url(#grad)"/>
</svg>
